<svg xmlns="http://www.w3.org/2000/svg" preserveAspectRatio="xMidYMid" width="96" height="27" viewBox="0 0 96 27"><defs><style>.cls-1{fill:#185078;fill-rule:evenodd}</style></defs><path d="M94.887 26.997h-2.988c-.806 0-1.585-.649-1.803-1.492-.413-1.602-.908-3.741-1.427-6.036h-3.227l-.514.001v-.001H82.16l-.513.001v-.001h-.069v.001l-.773-.001h-.773l-.001.001h-1.558l-.044-.001h-.132v.001l-1.546-.003-.001.003h-1.559c-.482 0-.779-.411-.662-.912l.526-2.25c.163-.698.842-1.268 1.512-1.268h1.422l1.794.001.066-.001h1.422l3.21.003 2.826.002v-.002h.001v.002h.366c-.631-2.797-1.245-5.474-1.746-7.386-.498-1.951-2.053-3.189-4.012-3.189h-3.233c-1.959 0-3.515 1.238-4.013 3.189-1.183 4.52-3.002 13.319-4.168 17.846-.217.843-.996 1.492-1.803 1.492h-2.987c-.81 0-1.276-.649-1.058-1.459l4.51-19.377C70.348 1.487 74.221.175 78.309.013v-.017h3.98v.017c4.088.162 7.961 1.474 9.146 6.148l4.51 19.377c.217.81-.249 1.459-1.058 1.459zm-37.189-6.165c-1.185 4.675-5.057 5.986-9.145 6.148v.017h-3.98v-.017c-4.089-.162-7.961-1.473-9.146-6.148l-4.51-19.377c-.217-.811.249-1.458 1.058-1.458h2.988c.806 0 1.585.647 1.802 1.491 1.166 4.527 2.985 13.326 4.168 17.847.499 1.951 2.054 3.188 4.013 3.188h3.233c1.959 0 3.514-1.237 4.013-3.188 1.183-4.521 3.002-13.32 4.168-17.847.217-.844.996-1.491 1.803-1.491h2.987c.809 0 1.276.647 1.058 1.458l-4.51 19.377zm-35.796-5.097c-5.427 0-7.546-.01-12.972-.01-.483 0-.876-.409-.876-.911v-2.287c0-.698.547-1.268 1.216-1.268h.001c5.427 0 7.546.01 12.973.01.483 0 .875.41.875.912v2.287c0 .697-.546 1.267-1.216 1.267h-.001zm3.04 11.262H4.849c-1.327 0-2.534-.567-3.41-1.479l-.008-.009a5.13 5.13 0 0 1-1.42-3.554V5.041a5.13 5.13 0 0 1 1.42-3.554v-.01C2.306.566 3.518-.002 4.849-.002h19.752c.67 0 1.217.57 1.217 1.268V3.53c0 .5-.393.911-.876.911h-.341v.004H6.126a.569.569 0 0 0-.388.176l-.004-.004a.615.615 0 0 0-.164.424v16.914c0 .166.062.315.163.423l.002.002a.564.564 0 0 0 .39.17h18.476v.005c.67 0 1.217.569 1.217 1.267v2.264c0 .501-.393.911-.876.911z" class="cls-1"/></svg>