<svg xmlns="http://www.w3.org/2000/svg" viewBox="0 0 132 36"><path fill="#FFF" d="M130.5 36h-4.1c-1.1 0-2.2-.9-2.5-2-.6-2.1-1.2-5-2-8h-18.5c-.7 0-1.1-.5-.9-1.2l.7-3c.2-.9 1.2-1.7 2.1-1.7h15.4c-.9-3.7-1.7-7.3-2.4-9.8-.7-2.6-2.8-4.3-5.5-4.3h-4.4c-2.7 0-4.8 1.7-5.5 4.3-1.6 6-4.1 17.8-5.7 23.8-.3 1.1-1.4 2-2.5 2h-4.1c-1.1 0-1.8-.9-1.5-1.9l6.2-25.8c1.6-6.2 7-8 12.6-8.2h5.6c5.6.2 10.9 2 12.6 8.2l6.2 25.8c-.1.9-.7 1.8-1.8 1.8zm-51.2-8.2c-1.6 6.2-7 8-12.6 8.2h-5.5c-5.6-.2-10.9-2-12.6-8.2L42.5 1.9C42.2.9 42.9 0 44 0h4.1c1.1 0 2.2.9 2.5 2 1.6 6 4.1 17.8 5.7 23.8.7 2.6 2.8 4.2 5.5 4.2h4.4c2.7 0 4.8-1.6 5.5-4.2 1.6-6 4.1-17.8 5.7-23.8.3-1.1 1.4-2 2.5-2H84c1.1 0 1.8.9 1.5 1.9l-6.2 25.9zM30.1 21H12.3c-.7 0-1.2-.5-1.2-1.2v-3c0-.9.8-1.7 1.7-1.7h17.8c.7 0 1.2.5 1.2 1.2v3c0 .9-.8 1.7-1.7 1.7zm4.2 15H6.7c-1.8 0-3.5-.8-4.7-2-1.2-1.2-2-2.9-2-4.7V6.7C0 4.9.8 3.2 2 2 3.2.8 4.9 0 6.7 0h27.1c.9 0 1.7.8 1.7 1.7v3c0 .7-.5 1.2-1.2 1.2H8.4c-.2 0-.4.1-.5.3-.2.1-.2.3-.2.5v22.6c0 .2.1.4.2.6.1.1.3.2.5.2h25.4c.9 0 1.7.8 1.7 1.7v3c0 .7-.5 1.2-1.2 1.2z"/></svg>