<svg xmlns="http://www.w3.org/2000/svg" xmlns:xlink="http://www.w3.org/1999/xlink" height="75" viewBox="0 0 140 75" width="140"><svg height="36" viewBox="0 0 132 36" width="132" x="4" y="4"><path fill="#FFF" d="M130.5 36h-4.1c-1.1 0-2.2-.9-2.5-2-.6-2.1-1.2-5-2-8h-18.5c-.7 0-1.1-.5-.9-1.2l.7-3c.2-.9 1.2-1.7 2.1-1.7h15.4c-.9-3.7-1.7-7.3-2.4-9.8-.7-2.6-2.8-4.3-5.5-4.3h-4.4c-2.7 0-4.8 1.7-5.5 4.3-1.6 6-4.1 17.8-5.7 23.8-.3 1.1-1.4 2-2.5 2h-4.1c-1.1 0-1.8-.9-1.5-1.9l6.2-25.8c1.6-6.2 7-8 12.6-8.2h5.6c5.6.2 10.9 2 12.6 8.2l6.2 25.8c-.1.9-.7 1.8-1.8 1.8zm-51.2-8.2c-1.6 6.2-7 8-12.6 8.2h-5.5c-5.6-.2-10.9-2-12.6-8.2L42.5 1.9C42.2.9 42.9 0 44 0h4.1c1.1 0 2.2.9 2.5 2 1.6 6 4.1 17.8 5.7 23.8.7 2.6 2.8 4.2 5.5 4.2h4.4c2.7 0 4.8-1.6 5.5-4.2 1.6-6 4.1-17.8 5.7-23.8.3-1.1 1.4-2 2.5-2H84c1.1 0 1.8.9 1.5 1.9l-6.2 25.9zM30.1 21H12.3c-.7 0-1.2-.5-1.2-1.2v-3c0-.9.8-1.7 1.7-1.7h17.8c.7 0 1.2.5 1.2 1.2v3c0 .9-.8 1.7-1.7 1.7zm4.2 15H6.7c-1.8 0-3.5-.8-4.7-2-1.2-1.2-2-2.9-2-4.7V6.7C0 4.9.8 3.2 2 2 3.2.8 4.9 0 6.7 0h27.1c.9 0 1.7.8 1.7 1.7v3c0 .7-.5 1.2-1.2 1.2H8.4c-.2 0-.4.1-.5.3-.2.1-.2.3-.2.5v22.6c0 .2.1.4.2.6.1.1.3.2.5.2h25.4c.9 0 1.7.8 1.7 1.7v3c0 .7-.5 1.2-1.2 1.2z"/></svg><svg height="27" viewBox="0 0 96 27" width="96" x="4" y="44"><defs><style>.cls-1{fill:#185078;fill-rule:evenodd}</style></defs><path d="M94.887 26.997h-2.988c-.806 0-1.585-.649-1.803-1.492-.413-1.602-.908-3.741-1.427-6.036h-3.227l-.514.001v-.001H82.16l-.513.001v-.001h-.069v.001l-.773-.001h-.773l-.001.001h-1.558l-.044-.001h-.132v.001l-1.546-.003-.001.003h-1.559c-.482 0-.779-.411-.662-.912l.526-2.25c.163-.698.842-1.268 1.512-1.268h1.422l1.794.001.066-.001h1.422l3.21.003 2.826.002v-.002h.001v.002h.366c-.631-2.797-1.245-5.474-1.746-7.386-.498-1.951-2.053-3.189-4.012-3.189h-3.233c-1.959 0-3.515 1.238-4.013 3.189-1.183 4.52-3.002 13.319-4.168 17.846-.217.843-.996 1.492-1.803 1.492h-2.987c-.81 0-1.276-.649-1.058-1.459l4.51-19.377C70.348 1.487 74.221.175 78.309.013v-.017h3.98v.017c4.088.162 7.961 1.474 9.146 6.148l4.51 19.377c.217.81-.249 1.459-1.058 1.459zm-37.189-6.165c-1.185 4.675-5.057 5.986-9.145 6.148v.017h-3.98v-.017c-4.089-.162-7.961-1.473-9.146-6.148l-4.51-19.377c-.217-.811.249-1.458 1.058-1.458h2.988c.806 0 1.585.647 1.802 1.491 1.166 4.527 2.985 13.326 4.168 17.847.499 1.951 2.054 3.188 4.013 3.188h3.233c1.959 0 3.514-1.237 4.013-3.188 1.183-4.521 3.002-13.32 4.168-17.847.217-.844.996-1.491 1.803-1.491h2.987c.809 0 1.276.647 1.058 1.458l-4.51 19.377zm-35.796-5.097c-5.427 0-7.546-.01-12.972-.01-.483 0-.876-.409-.876-.911v-2.287c0-.698.547-1.268 1.216-1.268h.001c5.427 0 7.546.01 12.973.01.483 0 .875.41.875.912v2.287c0 .697-.546 1.267-1.216 1.267h-.001zm3.04 11.262H4.849c-1.327 0-2.534-.567-3.41-1.479l-.008-.009a5.13 5.13 0 0 1-1.42-3.554V5.041a5.13 5.13 0 0 1 1.42-3.554v-.01C2.306.566 3.518-.002 4.849-.002h19.752c.67 0 1.217.57 1.217 1.268V3.53c0 .5-.393.911-.876.911h-.341v.004H6.126a.569.569 0 0 0-.388.176l-.004-.004a.615.615 0 0 0-.164.424v16.914c0 .166.062.315.163.423l.002.002a.564.564 0 0 0 .39.17h18.476v.005c.67 0 1.217.569 1.217 1.267v2.264c0 .501-.393.911-.876.911z" class="cls-1"/></svg></svg>