<svg xmlns="http://www.w3.org/2000/svg" xmlns:xlink="http://www.w3.org/1999/xlink" preserveAspectRatio="xMidYMid" width="96" height="27" viewBox="0 0 96 27">
  <defs>
    <style>
      .cls-1 {
        fill: #185078;
        fill-rule: evenodd;
      }
    </style>
  </defs>
  <path d="M94.887,26.997 L91.899,26.997 C91.093,26.997 90.314,26.348 90.096,25.505 C89.683,23.903 89.188,21.764 88.669,19.469 L87.308,19.469 L85.442,19.469 L84.928,19.470 L84.928,19.469 L82.160,19.469 L81.647,19.470 L81.647,19.469 L81.578,19.469 L81.578,19.470 L80.805,19.469 L80.032,19.469 L80.031,19.470 L78.473,19.470 L78.429,19.469 L78.297,19.469 L78.297,19.470 L76.751,19.467 L76.750,19.470 L75.191,19.470 C74.709,19.470 74.412,19.059 74.529,18.558 L75.055,16.308 C75.218,15.610 75.897,15.040 76.567,15.040 L76.697,15.040 L77.785,15.040 L77.988,15.040 L77.989,15.040 L79.783,15.041 L79.849,15.040 L79.978,15.040 L81.067,15.040 L81.270,15.040 L81.271,15.040 L84.481,15.043 L87.307,15.045 L87.307,15.043 L87.308,15.043 L87.308,15.045 L87.674,15.045 C87.043,12.248 86.429,9.571 85.928,7.659 C85.430,5.708 83.875,4.470 81.916,4.470 L80.299,4.470 L78.683,4.470 C76.724,4.470 75.168,5.708 74.670,7.659 C73.487,12.179 71.668,20.978 70.502,25.505 C70.285,26.348 69.506,26.997 68.699,26.997 L65.712,26.997 C64.902,26.997 64.436,26.348 64.654,25.538 L69.164,6.161 C70.348,1.487 74.221,0.175 78.309,0.013 L78.309,-0.004 L79.243,-0.004 L80.299,-0.004 L81.356,-0.004 L82.289,-0.004 L82.289,0.013 C86.377,0.175 90.250,1.487 91.435,6.161 L95.945,25.538 C96.162,26.348 95.696,26.997 94.887,26.997 ZM57.698,20.832 C56.513,25.507 52.641,26.818 48.553,26.980 L48.553,26.997 L47.619,26.997 L46.563,26.997 L45.506,26.997 L44.573,26.997 L44.573,26.980 C40.484,26.818 36.612,25.507 35.427,20.832 L30.917,1.455 C30.700,0.644 31.166,-0.003 31.975,-0.003 L34.963,-0.003 C35.769,-0.003 36.548,0.644 36.765,1.488 C37.931,6.015 39.750,14.814 40.933,19.335 C41.432,21.286 42.987,22.523 44.946,22.523 L46.563,22.523 L48.179,22.523 C50.138,22.523 51.693,21.286 52.192,19.335 C53.375,14.814 55.194,6.015 56.360,1.488 C56.577,0.644 57.356,-0.003 58.163,-0.003 L61.150,-0.003 C61.959,-0.003 62.426,0.644 62.208,1.455 L57.698,20.832 ZM21.902,15.735 C16.475,15.735 14.356,15.725 8.930,15.725 C8.447,15.725 8.054,15.316 8.054,14.814 L8.054,12.527 C8.054,11.829 8.601,11.259 9.270,11.259 L9.271,11.259 C14.698,11.259 16.817,11.269 22.244,11.269 C22.727,11.269 23.119,11.679 23.119,12.181 L23.119,14.468 C23.119,15.165 22.573,15.735 21.903,15.735 L21.902,15.735 ZM24.942,26.997 L24.601,26.997 L24.111,26.997 L23.384,26.997 L6.141,26.997 L4.849,26.997 C3.522,26.997 2.315,26.430 1.439,25.518 L1.431,25.509 C0.556,24.596 0.011,23.338 0.011,21.955 L0.011,5.041 C0.011,3.659 0.555,2.401 1.431,1.487 L1.431,1.477 C2.306,0.566 3.518,-0.002 4.849,-0.002 L6.141,-0.002 L17.260,-0.002 L23.384,-0.002 L23.558,-0.002 L24.601,-0.002 L24.601,-0.002 C25.271,-0.002 25.818,0.568 25.818,1.266 L25.818,3.530 C25.818,4.030 25.425,4.441 24.942,4.441 L24.601,4.441 L24.601,4.445 L24.111,4.445 L17.260,4.445 L6.141,4.445 L6.132,4.445 L6.126,4.445 C5.977,4.449 5.838,4.518 5.738,4.621 L5.734,4.617 C5.632,4.725 5.570,4.875 5.570,5.041 L5.570,21.955 C5.570,22.121 5.632,22.270 5.733,22.378 L5.735,22.380 C5.836,22.482 5.973,22.547 6.125,22.550 L6.132,22.550 L6.141,22.550 L24.111,22.550 L24.601,22.550 L24.601,22.555 L24.601,22.555 C25.271,22.555 25.818,23.124 25.818,23.822 L25.818,26.086 C25.818,26.587 25.425,26.997 24.942,26.997 Z" class="cls-1"/>
</svg>
