<?xml version="1.0" encoding="utf-8"?>
<!-- Generator: Adobe Illustrator 18.0.0, SVG Export Plug-In . SVG Version: 6.00 Build 0)  -->
<!DOCTYPE svg PUBLIC "-//W3C//DTD SVG 1.1//EN" "http://www.w3.org/Graphics/SVG/1.1/DTD/svg11.dtd">
<svg version="1.1" id="Слой_1" xmlns="http://www.w3.org/2000/svg" xmlns:xlink="http://www.w3.org/1999/xlink" x="0px" y="0px"
	 viewBox="0 0 132 36" enable-background="new 0 0 132 36" xml:space="preserve">
<path fill="#FFFFFF" d="M130.5,36h-4.1c-1.1,0-2.2-0.9-2.5-2c-0.6-2.1-1.2-5-2-8H120h-2.6l-0.7,0v0H113l-0.7,0v0h-0.1v0l-1.1,0H110
	l0,0h-2.1l-0.1,0h-0.2v0l-2.1,0l0,0h-2.1c-0.7,0-1.1-0.5-0.9-1.2l0.7-3c0.2-0.9,1.2-1.7,2.1-1.7h0.2h1.5h0.3h0l2.5,0l0.1,0h0.2h1.5
	h0.3h0l4.4,0l3.9,0v0h0v0h0.5c-0.9-3.7-1.7-7.3-2.4-9.8c-0.7-2.6-2.8-4.3-5.5-4.3h-2.2h-2.2c-2.7,0-4.8,1.7-5.5,4.3
	c-1.6,6-4.1,17.8-5.7,23.8c-0.3,1.1-1.4,2-2.5,2h-4.1c-1.1,0-1.8-0.9-1.5-1.9l6.2-25.8c1.6-6.2,7-8,12.6-8.2v0h1.3h1.5h1.5h1.3v0
	c5.6,0.2,10.9,2,12.6,8.2l6.2,25.8C132.2,35.1,131.6,36,130.5,36z M79.3,27.8c-1.6,6.2-7,8-12.6,8.2v0h-1.3H64h-1.5h-1.3v0
	c-5.6-0.2-10.9-2-12.6-8.2L42.5,1.9C42.2,0.9,42.9,0,44,0h4.1c1.1,0,2.2,0.9,2.5,2c1.6,6,4.1,17.8,5.7,23.8c0.7,2.6,2.8,4.2,5.5,4.2
	H64h2.2c2.7,0,4.8-1.6,5.5-4.2c1.6-6,4.1-17.8,5.7-23.8c0.3-1.1,1.4-2,2.5-2h4.1c1.1,0,1.8,0.9,1.5,1.9L79.3,27.8z M30.1,21
	c-7.5,0-10.4,0-17.8,0c-0.7,0-1.2-0.5-1.2-1.2v-3c0-0.9,0.8-1.7,1.7-1.7h0c7.5,0,10.4,0,17.8,0c0.7,0,1.2,0.5,1.2,1.2v3
	C31.8,20.2,31,21,30.1,21L30.1,21z M34.3,36h-0.5h-0.7h-1H8.4H6.7c-1.8,0-3.5-0.8-4.7-2l0,0c-1.2-1.2-2-2.9-2-4.7V6.7
	C0,4.9,0.8,3.2,2,2v0c1.2-1.2,2.9-2,4.7-2h1.8h15.3h8.4h0.2h1.4h0c0.9,0,1.7,0.8,1.7,1.7v3c0,0.7-0.5,1.2-1.2,1.2h-0.5v0h-0.7h-9.4
	H8.4h0h0C8.2,5.9,8,6,7.9,6.2l0,0C7.7,6.3,7.7,6.5,7.7,6.7v22.6c0,0.2,0.1,0.4,0.2,0.6l0,0C8,30,8.2,30.1,8.4,30.1h0h0h24.7h0.7v0h0
	c0.9,0,1.7,0.8,1.7,1.7v3C35.5,35.5,35,36,34.3,36z"/>
</svg>
